<svg width="30" height="30" viewBox="0 0 40 40" fill="none" xmlns="http://www.w3.org/2000/svg">
<path d="M19.7917 36.6667L27.3334 16.6667H30.75L38.5 36.6667H34.875L33.1667 31.4167H25.1667L23.2084 36.6667H19.7917ZM26.0834 28.5H32L29.0834 20.4167H29L26.0834 28.5ZM6.66669 31.6667L4.37502 29.375L12.875 20.875C11.8195 19.6528 10.882 18.4237 10.0625 17.1875C9.24308 15.9514 8.5278 14.6667 7.91669 13.3334H11.5417C12.0139 14.25 12.5347 15.1181 13.1042 15.9375C13.6736 16.757 14.3195 17.5973 15.0417 18.4584C16.2917 17.1528 17.3334 15.7987 18.1667 14.3959C19 12.9931 19.7084 11.5278 20.2917 10H1.66669V6.66671H13.3334V3.33337H16.6667V6.66671H28.3334V10H23.625C23.0139 11.9167 22.2014 13.7987 21.1875 15.6459C20.1736 17.4931 18.9306 19.25 17.4584 20.9167L21.5417 25.0417L20.2917 28.4167L15 23.3334L6.66669 31.6667Z" fill="url(#paint0_linear_7_234)"/>
<defs>
<linearGradient id="paint0_linear_7_234" x1="20.0834" y1="3.33337" x2="20.0834" y2="36.6667" gradientUnits="userSpaceOnUse">
<stop stop-color="#1242BE"/>
<stop offset="1" stop-color="#3867DE"/>
</linearGradient>
</defs>
</svg>
