<svg width="230" height="58" viewBox="0 0 230 58" fill="none" xmlns="http://www.w3.org/2000/svg">
<path d="M21.664 7.71999C24.6107 7.71999 27.2174 8.15066 29.484 9.01199C31.796 9.87332 33.972 11.1653 36.012 12.888L30.708 19.212C29.3027 18.124 27.92 17.308 26.56 16.764C25.2 16.22 23.7494 15.948 22.208 15.948C19.0347 15.948 16.5187 17.2853 14.66 19.96C12.8467 22.6347 11.94 26.76 11.94 32.336C11.94 37.8213 12.8467 41.9013 14.66 44.576C16.5187 47.2053 19.08 48.52 22.344 48.52C24.0667 48.52 25.6307 48.2027 27.036 47.568C28.4414 46.888 29.96 45.936 31.592 44.712L36.556 51.104C34.788 52.872 32.6347 54.3227 30.096 55.456C27.6027 56.5893 24.8374 57.156 21.8 57.156C17.448 57.156 13.6627 56.204 10.444 54.3C7.22535 52.396 4.70935 49.5853 2.89602 45.868C1.12802 42.1053 0.244019 37.5947 0.244019 32.336C0.244019 27.2133 1.15069 22.7933 2.96402 19.076C4.82269 15.3587 7.36135 12.548 10.58 10.644C13.844 8.69466 17.5387 7.71999 21.664 7.71999Z" fill="#1F1F1F"/>
<path d="M50.2532 57.156C47.1252 57.156 44.6772 56.272 42.9092 54.504C41.1866 52.6907 40.3252 50.1293 40.3252 46.82V5.54399L51.0692 4.38799V46.412C51.0692 47.908 51.6812 48.656 52.9052 48.656C53.5399 48.656 54.1292 48.5427 54.6732 48.316L56.7812 55.932C54.8319 56.748 52.6559 57.156 50.2532 57.156Z" fill="#1F1F1F"/>
<path d="M89.2167 45.528C89.2167 46.888 89.398 47.8853 89.7607 48.52C90.1687 49.1547 90.8034 49.6307 91.6647 49.948L89.4207 56.952C87.1994 56.7707 85.386 56.2947 83.9807 55.524C82.5754 54.708 81.4874 53.4387 80.7167 51.716C78.3594 55.3427 74.7327 57.156 69.8367 57.156C66.2554 57.156 63.3994 56.1133 61.2687 54.028C59.138 51.9427 58.0727 49.2227 58.0727 45.868C58.0727 41.924 59.5234 38.9093 62.4247 36.824C65.326 34.7387 69.5194 33.696 75.0047 33.696H78.6767V32.132C78.6767 30.0013 78.2234 28.5507 77.3167 27.78C76.41 26.964 74.8234 26.556 72.5567 26.556C71.378 26.556 69.95 26.7373 68.2727 27.1C66.5954 27.4173 64.8727 27.8707 63.1047 28.46L60.6567 21.388C62.9234 20.5267 65.2354 19.8693 67.5927 19.416C69.9954 18.9627 72.2167 18.736 74.2567 18.736C79.4247 18.736 83.21 19.8013 85.6127 21.932C88.0154 24.0627 89.2167 27.2587 89.2167 31.52V45.528ZM72.9647 49.472C75.4127 49.472 77.3167 48.316 78.6767 46.004V39.612H76.0247C73.5767 39.612 71.7407 40.0427 70.5167 40.904C69.338 41.7653 68.7487 43.1027 68.7487 44.916C68.7487 46.3667 69.1114 47.5 69.8367 48.316C70.6074 49.0867 71.65 49.472 72.9647 49.472Z" fill="#1F1F1F"/>
<path d="M128.239 56H118.923L118.447 51.444C115.817 55.252 112.168 57.156 107.499 57.156C104.189 57.156 101.673 56.1587 99.9506 54.164C98.2733 52.1693 97.4346 49.3813 97.4346 45.8V19.892H108.179V44.44C108.179 46.208 108.451 47.4547 108.995 48.18C109.584 48.86 110.468 49.2 111.647 49.2C113.913 49.2 115.863 47.7947 117.495 44.984V19.892H128.239V56Z" fill="#1F1F1F"/>
<path d="M169.057 5.54399V56H159.537L158.993 51.784C156.454 55.3653 153.031 57.156 148.725 57.156C144.237 57.156 140.814 55.4333 138.457 51.988C136.145 48.5427 134.989 43.828 134.989 37.844C134.989 34.172 135.601 30.8853 136.825 27.984C138.049 25.0827 139.771 22.816 141.993 21.184C144.259 19.552 146.843 18.736 149.745 18.736C153.19 18.736 156.046 19.8693 158.313 22.136V4.38799L169.057 5.54399ZM152.057 49.268C154.55 49.268 156.635 47.908 158.313 45.188V29.616C157.451 28.5733 156.567 27.8027 155.661 27.304C154.799 26.8053 153.802 26.556 152.669 26.556C150.674 26.556 149.087 27.4853 147.909 29.344C146.73 31.2027 146.141 34.0587 146.141 37.912C146.141 42.128 146.639 45.0747 147.637 46.752C148.679 48.4293 150.153 49.268 152.057 49.268Z" fill="#1F1F1F"/>
<path d="M188.206 19.892V56H177.462V19.892H188.206ZM182.766 0.85199C184.625 0.85199 186.143 1.44132 187.322 2.61999C188.546 3.75332 189.158 5.20399 189.158 6.97199C189.158 8.73999 188.546 10.2133 187.322 11.392C186.143 12.5253 184.625 13.092 182.766 13.092C180.907 13.092 179.389 12.5253 178.21 11.392C177.031 10.2133 176.442 8.73999 176.442 6.97199C176.442 5.20399 177.031 3.75332 178.21 2.61999C179.389 1.44132 180.907 0.85199 182.766 0.85199Z" fill="#1F1F1F"/>
<path d="M212.294 18.736C217.824 18.736 222.154 20.436 225.282 23.836C228.41 27.1907 229.974 31.9053 229.974 37.98C229.974 41.8333 229.248 45.2107 227.798 48.112C226.392 50.968 224.352 53.1893 221.678 54.776C219.048 56.3627 215.92 57.156 212.294 57.156C206.808 57.156 202.479 55.4787 199.306 52.124C196.178 48.724 194.614 43.9867 194.614 37.912C194.614 34.0587 195.316 30.704 196.722 27.848C198.172 24.9467 200.212 22.7027 202.842 21.116C205.516 19.5293 208.667 18.736 212.294 18.736ZM212.294 26.624C210.118 26.624 208.486 27.5533 207.398 29.412C206.31 31.2253 205.766 34.0587 205.766 37.912C205.766 41.856 206.287 44.7347 207.33 46.548C208.418 48.3613 210.072 49.268 212.294 49.268C214.47 49.268 216.102 48.3613 217.19 46.548C218.278 44.6893 218.822 41.8333 218.822 37.98C218.822 34.036 218.278 31.1573 217.19 29.344C216.147 27.5307 214.515 26.624 212.294 26.624Z" fill="#1F1F1F"/>
</svg>
